<?xml version="1.0" encoding="utf-8"?>
<!-- Generator: Adobe Illustrator 27.6.1, SVG Export Plug-In . SVG Version: 6.00 Build 0)  -->
<svg version="1.1" id="Capa_1" xmlns="http://www.w3.org/2000/svg" xmlns:xlink="http://www.w3.org/1999/xlink" x="0px" y="0px"
	 viewBox="0 0 392.1 110.1" style="enable-background:new 0 0 392.1 110.1;" xml:space="preserve">
<style type="text/css">
	.st0{fill:#4B4696;}
	.st1{fill:#FFFFFF;}
	.st2{fill:#AF9DCC;stroke:#AF9DCC;stroke-width:1.6268;stroke-miterlimit:10;}
</style>
<rect y="1.2" class="st0" width="392.1" height="108.9"/>
<g>
	<g>
		<g transform="translate(11.341913, 311.835727)">
			<g>
				<path class="st1" d="M8.6-217.6v-38.7h3.8v-5.9H8.6v-28.9h4.1v-5.9H2.3v79.3L8.6-217.6L8.6-217.6z"/>
			</g>
		</g>
	</g>
	<g>
		<g transform="translate(24.025453, 311.835727)">
			<g>
				<path class="st1" d="M17-281.9c0-5.1-2.3-7.4-7.1-7.4s-7.1,2.3-7.1,7.4v57.3c0,5,2.3,7.4,7.1,7.4s7.1-2.3,7.1-7.4v-21.7l-6.4-1
					v23.2c0,0.7-0.3,1-0.8,1c-0.4,0-0.8-0.3-0.8-1V-251h7.9L17-281.9L17-281.9z M9.9-283.4c0.5,0,0.8,0.3,0.8,1v25.6H9.2v-25.6
					C9.1-283.2,9.5-283.4,9.9-283.4z"/>
			</g>
		</g>
	</g>
	<g>
		<g transform="translate(40.647618, 311.835727)">
			<g>
				<path class="st1" d="M10-217.6v-64.9c0-0.7,0.3-0.9,0.8-0.9c0.4,0,0.8,0.3,0.8,0.9v64.9H18v-64.9c0-0.7,0.3-0.9,0.8-0.9
					s0.8,0.3,0.8,0.9v64.9H26v-66.8c0-3.4-1.5-5-3.8-5c-1.9,0-3.2,1.4-3.4,4.4H18c-0.4-3.3-1.8-4.4-3.6-4.4c-1.9,0-3.2,1.4-3.5,4.4
					h-0.8L9-289H3.6v71.4H10z"/>
			</g>
		</g>
	</g>
	<g>
		<g transform="translate(64.858012, 311.835727)">
			<g>
				<path class="st1" d="M11.1-290.3v-5.9H4.7v5.9H11.1z M11.1-217.6V-289H4.7v71.4H11.1z"/>
			</g>
		</g>
	</g>
	<g>
		<g transform="translate(74.036516, 311.835727)">
			<g>
				<path class="st1" d="M11.5-217.6v-64.9c0-0.7,0.3-0.9,0.8-0.9c0.4,0,0.8,0.3,0.8,0.9v64.9h6.4v-66.8c0-3.4-1.6-5-3.8-5
					c-1.9,0-3.2,1.4-3.5,4.4h-0.8l-1.1-4H5.2v71.4L11.5-217.6L11.5-217.6z"/>
			</g>
		</g>
	</g>
	<g>
		<g transform="translate(90.69484, 311.835727)">
			<g>
				<path class="st1" d="M12.3-290.3v-5.9H5.9v5.9H12.3z M12.3-217.6V-289H5.9v71.4H12.3z"/>
			</g>
		</g>
	</g>
	<g>
		<g transform="translate(99.873349, 311.835727)">
			<g>
				<path class="st1" d="M6.3-224.8c0,5.2,2.3,7.5,7.1,7.5s7.1-2.3,7.1-7.5v-20c0-5.1-1.9-8.2-3.9-10.9c-2-2.7-4-5.1-4-9v-17.8
					c0-0.7,0.3-1,0.8-1s0.8,0.3,0.8,1v19.2l6.4-1v-17.5c0-5.2-2.3-7.6-7.1-7.6s-7.1,2.3-7.1,7.6v17.1c0,5.1,1.8,8.1,3.7,10.7
					c2,2.8,4.1,5.2,4.1,9.2v20.7c0,0.7-0.3,1-0.8,1c-0.4,0-0.8-0.3-0.8-1v-22l-6.3,1C6.3-245.1,6.3-224.8,6.3-224.8z"/>
			</g>
		</g>
	</g>
	<g>
		<g transform="translate(116.495517, 311.835727)">
			<g>
				<path class="st1" d="M8.4-223.2c0,3.7,1.9,5.6,5.1,5.6h3.3l0.6-5.9h-2.6v-59.6h2.5v-5.9h-2.5v-6.8l-6.3,2.3v4.5H6.6v5.9h1.9
					L8.4-223.2L8.4-223.2z"/>
			</g>
		</g>
	</g>
	<g>
		<g transform="translate(128.853839, 311.835727)">
			<g>
				<path class="st1" d="M7.6-222c0,3.2,1.5,4.8,3.7,4.8c1.9,0,3.3-1.4,3.4-4.4h0.8c0.3,2.6,1.7,4,4.3,4h3l0.6-5.9h-1.7v-58.4
					c0-5.1-2.3-7.4-7.1-7.4s-7.1,2.3-7.1,7.4v19.7l6.3,1v-21.3c0-0.7,0.3-1,0.8-1s0.8,0.3,0.8,1v20.9c0,2.5-0.7,3.2-3,4.5
					c-3.6,2-4.8,3.2-4.8,8.2L7.6-222L7.6-222z M15.4-224.1c0,0.7-0.3,0.9-0.8,0.9c-0.4,0-0.8-0.3-0.8-0.9v-26c0-1.4,0.2-1.8,0.4-2.5
					s0.3-1.1,0.3-2.9h0.8L15.4-224.1L15.4-224.1z"/>
			</g>
		</g>
	</g>
	<g>
		<g transform="translate(146.054166, 311.835727)">
			<g>
				<path class="st1" d="M8.4-224.8c0,5.2,2.3,7.5,7.1,7.5s7.1-2.3,7.1-7.5v-20c0-5.1-1.9-8.2-3.9-10.9c-2-2.7-4-5.1-4-9v-17.8
					c0-0.7,0.3-1,0.8-1c0.5,0,0.8,0.3,0.8,1v19.2l6.4-1v-17.5c0-5.2-2.3-7.6-7.1-7.6s-7.1,2.3-7.1,7.6v17.1c0,5.1,1.8,8.1,3.7,10.7
					c2,2.8,4.1,5.2,4.1,9.2v20.7c0,0.7-0.3,1-0.8,1c-0.4,0-0.8-0.3-0.8-1v-22l-6.3,1C8.4-245.1,8.4-224.8,8.4-224.8z"/>
			</g>
		</g>
	</g>
	<g>
		<g transform="translate(221.323263, 311.835727)">
			<g>
				<path class="st1" d="M18.2-217.6v-38.7H22v-5.9h-3.8v-28.9h4.1v-5.9H11.8v79.3L18.2-217.6L18.2-217.6z"/>
			</g>
		</g>
	</g>
	<g>
		<g transform="translate(234.006803, 311.835727)">
			<g>
				<path class="st1" d="M18.8-217.6v-64.9c0-0.7,0.3-0.9,0.8-0.9c0.4,0,0.8,0.3,0.8,0.9v27.2l6.4-1v-27.9c0-3.5-1.6-5.1-3.8-5.1
					c-1.9,0-3.2,1.2-3.4,4.4h-1l-1.1-4h-5.1v71.4h6.4C18.8-217.5,18.8-217.6,18.8-217.6z"/>
			</g>
		</g>
	</g>
	<g>
		<g transform="translate(250.628968, 311.835727)">
			<g>
				<path class="st1" d="M13.1-224.6c0,5,2.3,7.4,7.1,7.4s7.1-2.3,7.1-7.4v-57.3c0-5.1-2.3-7.4-7.1-7.4s-7.1,2.3-7.1,7.4V-224.6z
					 M19.5-282.4c0-0.7,0.3-1,0.8-1s0.8,0.3,0.8,1v58.3c0,0.7-0.3,1-0.8,1c-0.4,0-0.8-0.3-0.8-1V-282.4z"/>
			</g>
		</g>
	</g>
	<g>
		<g transform="translate(267.251134, 311.835727)">
			<g>
				<path class="st1" d="M20.3-217.6v-64.9c0-0.7,0.3-0.9,0.8-0.9c0.4,0,0.8,0.3,0.8,0.9v64.9h6.4v-66.8c0-3.4-1.6-5-3.8-5
					c-1.9,0-3.2,1.4-3.5,4.4h-0.8l-1.1-4H14v71.4L20.3-217.6L20.3-217.6z"/>
			</g>
		</g>
	</g>
	<g>
		<g transform="translate(283.909459, 311.835727)">
			<g>
				<path class="st1" d="M16-223.2c0,3.7,1.9,5.6,5.1,5.6h3.3l0.6-5.9h-2.6v-59.6h2.5v-5.9h-2.5v-6.8l-6.3,2.3v4.5h-1.9v5.9h1.9
					L16-223.2L16-223.2z"/>
			</g>
		</g>
	</g>
	<g>
		<g transform="translate(296.267776, 311.835727)">
			<g>
				<path class="st1" d="M29.4-281.9c0-5.1-2.3-7.4-7.1-7.4s-7.1,2.3-7.1,7.4v57.3c0,5,2.3,7.4,7.1,7.4s7.1-2.3,7.1-7.4v-21.7
					l-6.4-1v23.2c0,0.7-0.3,1-0.8,1c-0.4,0-0.8-0.3-0.8-1V-251h7.9L29.4-281.9L29.4-281.9z M22.3-283.4c0.5,0,0.8,0.3,0.8,1v25.6
					h-1.5v-25.6C21.5-283.2,21.9-283.4,22.3-283.4z"/>
			</g>
		</g>
	</g>
	<g>
		<g transform="translate(312.889944, 311.835727)">
			<g>
				<path class="st1" d="M22.4-217.6v-64.9c0-0.7,0.3-0.9,0.8-0.9c0.4,0,0.8,0.3,0.8,0.9v27.2l6.4-1v-27.9c0-3.5-1.6-5.1-3.8-5.1
					c-1.9,0-3.2,1.2-3.4,4.4h-0.8l-1.1-4h-5.1v71.4h6.2C22.4-217.5,22.4-217.6,22.4-217.6z"/>
			</g>
		</g>
	</g>
	<g>
		<g transform="translate(329.512113, 311.835727)">
			<g>
				<path class="st1" d="M16.7-222c0,3.2,1.5,4.8,3.7,4.8c1.9,0,3.3-1.4,3.4-4.4h0.8c0.3,2.6,1.7,4,4.3,4h3l0.6-5.9h-1.7v-58.4
					c0-5.1-2.3-7.4-7.1-7.4s-7.1,2.3-7.1,7.4v19.7l6.3,1v-21.3c0-0.7,0.3-1,0.8-1s0.8,0.3,0.8,1v20.9c0,2.5-0.7,3.2-3,4.5
					c-3.6,2-4.8,3.2-4.8,8.2L16.7-222L16.7-222z M24.6-224.1c0,0.7-0.3,0.9-0.8,0.9c-0.4,0-0.8-0.3-0.8-0.9v-26
					c0-1.4,0.2-1.8,0.4-2.5c0.2-0.7,0.3-1.1,0.3-2.9h0.9V-224.1z"/>
			</g>
		</g>
	</g>
	<g>
		<g transform="translate(346.712439, 311.835727)">
			<g>
				<path class="st1" d="M17.5-224.8c0,5.2,2.3,7.5,7.1,7.5s7.1-2.3,7.1-7.5v-20c0-5.1-1.9-8.2-3.9-10.9c-2-2.7-4-5.1-4-9v-17.8
					c0-0.7,0.3-1,0.8-1s0.8,0.3,0.8,1v19.2l6.4-1v-17.5c0-5.2-2.3-7.6-7.1-7.6s-7.1,2.3-7.1,7.6v17.1c0,5.1,1.8,8.1,3.7,10.7
					c2,2.8,4.1,5.2,4.1,9.2v20.7c0,0.7-0.3,1-0.8,1c-0.4,0-0.8-0.3-0.8-1v-22l-6.3,1C17.5-245.1,17.5-224.8,17.5-224.8z"/>
			</g>
		</g>
	</g>
</g>
<g>
	<g transform="translate(164.711917, 326.97427)">
		<g>
			<path class="st2" d="M7.7-227c0,6.1,3,9,8.5,9c5.6,0,8.5-3,8.5-9v-27.9c0-8.4-2.9-14.7-5.7-20.7c-2.6-5.5-5-10.8-5-17.4v-24.5
				c0-1.8,0.9-2.7,2.1-2.7c1.3,0,2.1,0.9,2.1,2.7v28.8l6.4-1v-27.4c0-6.1-3-9.1-8.5-9.1c-5.6,0-8.5,3-8.5,9.1v24
				c0,8.1,2.9,14.4,5.6,20.4c2.6,5.6,5.1,10.9,5.1,17.7v28.3c0,1.8-0.9,2.7-2.1,2.7c-1.3,0-2.1-0.9-2.1-2.7v-32.6l-6.4,1
				C7.7-258.3,7.7-227,7.7-227z"/>
		</g>
	</g>
</g>
<g>
	<g transform="translate(186.050868, 326.97427)">
		<g>
			<path class="st2" d="M17-218.5v-107.3h-6.4v107.3C10.6-218.5,17-218.5,17-218.5z"/>
		</g>
	</g>
</g>
<g>
	<g transform="translate(198.015827, 326.97427)">
		<g>
			<path class="st2" d="M17.4-218.5l-0.2-39.4c-0.1-12.3-0.7-24.1-1.1-33.7h1.2l5.9,73.1h6.4v-107.3h-5.8l0.2,39.2
				c0,11.5,0.6,24.3,1.1,33.9h-1.2l-5.8-73.1h-6.5v107.3C11.6-218.5,17.4-218.5,17.4-218.5z"/>
		</g>
	</g>
</g>
</svg>
